HIERARCHY
ROOT Hips
{
  OFFSET 5.84602e-005 68.8428 3.50346
  CHANNELS 6 Xposition Yposition Zposition Zrotation Xrotation Yrotation
  JOINT Spine
  {
    OFFSET 0 8.597 -4.6522
    CHANNELS 3 Zrotation Xrotation Yrotation
    JOINT Spine1
    {
      OFFSET 0 7.8454 0.4098
      CHANNELS 3 Zrotation Xrotation Yrotation
      JOINT Spine2
      {
        OFFSET 0 9.7078 -2.1609
        CHANNELS 3 Zrotation Xrotation Yrotation
        JOINT Neck
        {
          OFFSET 0 21.8761 -0.4549
          CHANNELS 3 Zrotation Xrotation Yrotation
          JOINT Head
          {
            OFFSET 0 12.3537 3.3602
            CHANNELS 3 Zrotation Xrotation Yrotation
            End Site
            {
              OFFSET 0.0001 18.9506 0.5657
            }
          }
        }
        JOINT LeftShoulder
        {
          OFFSET 2.2086 21.1115 7.2329
          CHANNELS 3 Zrotation Xrotation Yrotation
          JOINT LeftArm
          {
            OFFSET 13.1193 3.0282 -4.8998
            CHANNELS 3 Zrotation Xrotation Yrotation
            JOINT LeftForeArm
            {
              OFFSET 27.4081 -0.0973053 -0.2375
              CHANNELS 3 Zrotation Xrotation Yrotation
              JOINT LeftHand
              {
                OFFSET 22.8641 0.0662994 -0.1369
                CHANNELS 3 Zrotation Xrotation Yrotation
                JOINT LeftHandIndex1
                {
                  OFFSET 8.8614 0.775009 2.4612
                  CHANNELS 3 Zrotation Xrotation Yrotation
                  JOINT LeftHandIndex2
                  {
                    OFFSET 3.3146 -0.808304 0.5841
                    CHANNELS 3 Zrotation Xrotation Yrotation
                    JOINT LeftHandIndex3
                    {
                      OFFSET 2.2628 -0.552002 0.3989
                      CHANNELS 3 Zrotation Xrotation Yrotation
                      End Site
                      {
                        OFFSET 1.6102 -0.4807 0.2612
                      }
                    }
                  }
                }
                JOINT LeftHandMiddle1
                {
                  OFFSET 8.9937 0.895004 0.2143
                  CHANNELS 3 Zrotation Xrotation Yrotation
                  JOINT LeftHandMiddle2
                  {
                    OFFSET 4.0984 0.0113983 -0.0242
                    CHANNELS 3 Zrotation Xrotation Yrotation
                    JOINT LeftHandMiddle3
                    {
                      OFFSET 2.2716 0.00689697 -0.0138001
                      CHANNELS 3 Zrotation Xrotation Yrotation
                      End Site
                      {
                        OFFSET 2.0404 -0.1441 0.0027
                      }
                    }
                  }
                }
                JOINT LeftHandRing1
                {
                  OFFSET 8.5234 0.597198 -2.0164
                  CHANNELS 3 Zrotation Xrotation Yrotation
                  JOINT LeftHandRing2
                  {
                    OFFSET 3.7188 -0.188293 -0.2328
                    CHANNELS 3 Zrotation Xrotation Yrotation
                    JOINT LeftHandRing3
                    {
                      OFFSET 2.1191 -0.106598 -0.1332
                      CHANNELS 3 Zrotation Xrotation Yrotation
                      End Site
                      {
                        OFFSET 1.8737 -0.2304 -0.0886
                      }
                    }
                  }
                }
                JOINT LeftHandPinky1
                {
                  OFFSET 7.9094 -0.601089 -3.4825
                  CHANNELS 3 Zrotation Xrotation Yrotation
                  JOINT LeftHandPinky2
                  {
                    OFFSET 2.2874 -0.477005 -0.6314
                    CHANNELS 3 Zrotation Xrotation Yrotation
                    JOINT LeftHandPinky3
                    {
                      OFFSET 1.6774 -0.349396 -0.4633
                      CHANNELS 3 Zrotation Xrotation Yrotation
                      End Site
                      {
                        OFFSET 1.4888 -0.4091 -0.3416
                      }
                    }
                  }
                }
                JOINT LeftHandThumb1
                {
                  OFFSET 1.833 -1.3875 1.3896
                  CHANNELS 3 Zrotation Xrotation Yrotation
                  JOINT LeftHandThumb2
                  {
                    OFFSET 3.4129 -1.121 2.5732
                    CHANNELS 3 Zrotation Xrotation Yrotation
                    JOINT LeftHandThumb3
                    {
                      OFFSET 2.2474 -0.804199 1.6192
                      CHANNELS 3 Zrotation Xrotation Yrotation
                      End Site
                      {
                        OFFSET 1.6527 -0.5689 1.1317
                      }
                    }
                  }
                }
              }
            }
          }
        }
        JOINT RightShoulder
        {
          OFFSET -2.2086 21.1115 7.2329
          CHANNELS 3 Zrotation Xrotation Yrotation
          JOINT RightArm
          {
            OFFSET -13.1216 3.0287 -4.9007
            CHANNELS 3 Zrotation Xrotation Yrotation
            JOINT RightForeArm
            {
              OFFSET -27.4081 -0.0973053 -0.2375
              CHANNELS 3 Zrotation Xrotation Yrotation
              JOINT RightHand
              {
                OFFSET -22.8641 0.0664063 -0.1369
                CHANNELS 3 Zrotation Xrotation Yrotation
                JOINT RightHandIndex1
                {
                  OFFSET -8.8614 0.774994 2.4612
                  CHANNELS 3 Zrotation Xrotation Yrotation
                  JOINT RightHandIndex2
                  {
                    OFFSET -3.3146 -0.808304 0.5841
                    CHANNELS 3 Zrotation Xrotation Yrotation
                    JOINT RightHandIndex3
                    {
                      OFFSET -2.2628 -0.552002 0.3989
                      CHANNELS 3 Zrotation Xrotation Yrotation
                      End Site
                      {
                        OFFSET -1.6102 -0.4807 0.2612
                      }
                    }
                  }
                }
                JOINT RightHandMiddle1
                {
                  OFFSET -8.9937 0.894989 0.2143
                  CHANNELS 3 Zrotation Xrotation Yrotation
                  JOINT RightHandMiddle2
                  {
                    OFFSET -4.0984 0.0113983 -0.0242
                    CHANNELS 3 Zrotation Xrotation Yrotation
                    JOINT RightHandMiddle3
                    {
                      OFFSET -2.2716 0.00691223 -0.0138001
                      CHANNELS 3 Zrotation Xrotation Yrotation
                      End Site
                      {
                        OFFSET -2.0404 -0.1441 0.0027
                      }
                    }
                  }
                }
                JOINT RightHandRing1
                {
                  OFFSET -8.5234 0.597198 -2.0164
                  CHANNELS 3 Zrotation Xrotation Yrotation
                  JOINT RightHandRing2
                  {
                    OFFSET -3.7188 -0.188309 -0.2328
                    CHANNELS 3 Zrotation Xrotation Yrotation
                    JOINT RightHandRing3
                    {
                      OFFSET -2.1191 -0.106598 -0.1332
                      CHANNELS 3 Zrotation Xrotation Yrotation
                      End Site
                      {
                        OFFSET -1.8737 -0.2304 -0.0886
                      }
                    }
                  }
                }
                JOINT RightHandPinky1
                {
                  OFFSET -7.9094 -0.601105 -3.4825
                  CHANNELS 3 Zrotation Xrotation Yrotation
                  JOINT RightHandPinky2
                  {
                    OFFSET -2.2874 -0.477005 -0.6314
                    CHANNELS 3 Zrotation Xrotation Yrotation
                    JOINT RightHandPinky3
                    {
                      OFFSET -1.6774 -0.349396 -0.4633
                      CHANNELS 3 Zrotation Xrotation Yrotation
                      End Site
                      {
                        OFFSET -1.4888 -0.4091 -0.3416
                      }
                    }
                  }
                }
                JOINT RightHandThumb1
                {
                  OFFSET -1.833 -1.38751 1.3896
                  CHANNELS 3 Zrotation Xrotation Yrotation
                  JOINT RightHandThumb2
                  {
                    OFFSET -3.41299 -1.12099 2.5732
                    CHANNELS 3 Zrotation Xrotation Yrotation
                    JOINT RightHandThumb3
                    {
                      OFFSET -2.24741 -0.804108 1.6192
                      CHANNELS 3 Zrotation Xrotation Yrotation
                      End Site
                      {
                        OFFSET -1.6527 -0.5689 1.1317
                      }
                    }
                  }
                }
              }
            }
          }
        }
      }
    }
  }
  JOINT RightUpLeg
  {
    OFFSET -9.1966 3.8861 -0.7581
    CHANNELS 3 Zrotation Xrotation Yrotation
    JOINT RightLeg
    {
      OFFSET -0.7359 -41.0265 0
      CHANNELS 3 Zrotation Xrotation Yrotation
      JOINT RightFoot
      {
        OFFSET 0 -40.2855 0
        CHANNELS 3 Zrotation Xrotation Yrotation
        JOINT RightToeBase
        {
          OFFSET 0 -5.6122 11.7359
          CHANNELS 3 Zrotation Xrotation Yrotation
          End Site
          {
            OFFSET 0 0 7.8731
          }
        }
      }
    }
  }
  JOINT LeftUpLeg
  {
    OFFSET 9.1965 3.8864 -0.7581
    CHANNELS 3 Zrotation Xrotation Yrotation
    JOINT LeftLeg
    {
      OFFSET 0.7359 -41.0268 0
      CHANNELS 3 Zrotation Xrotation Yrotation
      JOINT LeftFoot
      {
        OFFSET 0 -40.2855 0
        CHANNELS 3 Zrotation Xrotation Yrotation
        JOINT LeftToeBase
        {
          OFFSET 0 -5.6122 11.7359
          CHANNELS 3 Zrotation Xrotation Yrotation
          End Site
          {
            OFFSET 0 0 7.8731
          }
        }
      }
    }
  }
}
MOTION
Frames:	7
Frame Time:	0.0333333
5.84602e-005 68.8428 3.50346 0 0 -0 0 0 -0 0 0 -0 0 0 -0 0 0 -0 0 0 -0 0 0 -0 0 0 -0 0 0 -0 0 0 -0 0 0 -0 0 0 -0 0 0 -0 0 0 -0 -0.0146107 -8.87603e-005 -2.63497e-007 2.99804e-018 -2.42657e-020 -1.42182e-022 0 0 -0 -0.0187562 -0.001176 5.858e-005 5.06224e-018 3.88251e-019 1.21329e-020 0 0 -0 -0.012269 -0.00324817 0.000675346 -1.74678e-018 3.88251e-019 -0 0 0 -0 0 0 -0 0 0 -0 0 0 -0 0 0 -0 0 0 -0 0 0 -0 0 0 -0 0 0 -0 0 0 -0 0 0 -0 0.0149955 -9.10982e-005 2.64101e-007 -9.69331e-018 1.21329e-020 -4.7394e-023 0 0 -0 0.0189956 -0.00119102 -5.96516e-005 -5.41541e-019 0 2.42657e-020 0 0 -0 0.0122698 -0.00324857 -0.000673756 -2.00796e-019 0 -1.94126e-019 0 0 -0 0 0 -0 0 0 -0 3.39842 1.33031 -0.0637918 -5.65207e-008 0.834868 -0.000436188 -3.39935 -2.16518 -0.0642563 -8.89002e-024 -1.18485e-023 -1.48106e-024 -3.39844 1.35642 0.0640283 -3.18788e-007 0.782166 -0.000588827 3.39931 -2.13858 0.0634662 1.1399e-023 0 -0 
1.18498 41.2801 -0.797612 0 11.1755 -0 -0.0451707 0.477753 -0.381337 -0.0871641 0.9559 -0.762336 -0.0871641 0.955896 -0.762336 0.00211582 -14.0744 0.000998659 4.16047e-008 -0.218338 7.36327e-007 -4.81234 13.2027 1.11794 -32.1795 -1.10935 -4.92517 -36.7865 21.3055 -24.1434 37.6116 9.05138 -7.41813 -5.82665e-007 -1.30698e-006 2.90395e-006 3.90039e-008 2.75895e-006 -2.25046e-006 -5.82665e-007 -1.30698e-006 2.90395e-006 -5.82665e-007 -1.30698e-006 2.90395e-006 -0.0146208 -8.99881e-005 -1.91831e-006 -5.82802e-007 -1.30735e-006 2.90378e-006 -5.82665e-007 -1.30698e-006 2.90395e-006 -0.0187189 -0.00117122 5.79827e-005 -5.82814e-007 -1.30746e-006 2.90374e-006 -5.82665e-007 -1.30698e-006 2.90395e-006 -0.0122491 -0.00323781 0.000675157 -5.82707e-007 -1.30732e-006 2.90383e-006 -5.82665e-007 -1.30698e-006 2.90395e-006 3.90039e-008 2.75895e-006 -2.25046e-006 -5.82665e-007 -1.30698e-006 2.90395e-006 16.8295 -3.50433 19.3574 29.6148 -2.14268 7.19752 26.0653 15.1741 20.3897 -27.7889 11.3785 -15.2549 -1.27222e-014 0 -1.27222e-014 1.7232e-006 5.46544e-007 -1.25897e-006 -1.23383e-006 9.57956e-007 6.53411e-007 -1.27222e-014 0 -1.27222e-014 0.0149885 -8.8829e-005 7.14228e-007 -9.54166e-015 9.54166e-015 9.54166e-015 -1.27222e-014 0 -1.27222e-014 0.0190266 -0.00119216 -6.01759e-005 5.29669e-031 -3.18055e-015 9.54166e-015 -1.27222e-014 0 -1.27222e-014 0.012233 -0.00323627 -0.000673407 -1.59028e-015 -6.36111e-015 -3.18055e-015 -1.27222e-014 0 -1.27222e-014 1.7232e-006 5.46544e-007 -1.25897e-006 -1.23383e-006 9.57956e-007 6.53411e-007 -4.43422 -16.9722 -12.0248 -5.43338 76.1472 3.99199 8.92408 37.6999 -17.9393 -1.49809e-008 -5.27309e-009 -2.14384e-008 4.39333 -16.9312 11.9134 5.15623 76.0858 -3.66405 -8.72818 37.0255 17.74 -6.4027e-007 -2.47388e-007 1.99195e-006 
1.83058 28.9089 -2.59401 0 15.8793 -0 -0.113644 0.924418 -0.531993 -0.218741 1.84977 -1.06236 -0.218741 1.84978 -1.06236 -0.00768758 -20.4239 -0.00335393 -3.3169e-007 -0.434745 -3.35127e-007 -6.96929 18.6927 1.51542 -46.6289 -1.62556 -7.15259 -47.1489 27.7925 -37.3748 55.4115 12.6541 -11.1252 2.83345e-007 -6.84637e-007 -4.22343e-007 2.83345e-007 -6.84637e-007 -4.22343e-007 -2.83345e-007 6.84637e-007 4.22343e-007 2.83345e-007 -6.84637e-007 -4.22343e-007 -0.0145946 -8.9665e-005 2.45475e-006 -2.8334e-007 6.84583e-007 4.2243e-007 2.83345e-007 -6.84637e-007 -4.22343e-007 -0.0187514 -0.00117998 6.15202e-005 -2.83334e-007 6.84568e-007 4.22458e-007 2.83345e-007 -6.84637e-007 -4.22343e-007 -0.0122646 -0.00324778 0.000675667 -2.83325e-007 6.84594e-007 4.22424e-007 2.83345e-007 -6.84637e-007 -4.22343e-007 2.83345e-007 -6.84637e-007 -4.22343e-007 -2.83345e-007 6.84637e-007 4.22343e-007 25.0627 -5.00702 27.0838 43.8237 -3.1172 11.8761 34.4911 21.2013 30.3369 -38.117 16.0337 -22.8131 -1.04107e-006 -2.33368e-006 1.53833e-006 -1.48725e-007 -3.33383e-007 2.19761e-007 -5.94899e-007 -1.33353e-006 8.79044e-007 -1.04107e-006 -2.33368e-006 1.53833e-006 0.0150284 -8.87849e-005 4.03676e-006 -5.94885e-007 -1.33342e-006 8.79219e-007 -1.04107e-006 -2.33368e-006 1.53833e-006 0.0189678 -0.00118902 -5.69517e-005 -5.94872e-007 -1.33339e-006 8.7927e-007 -1.04107e-006 -2.33368e-006 1.53833e-006 0.0122849 -0.00325385 -0.000681752 -5.94855e-007 -1.33344e-006 8.79203e-007 -1.04107e-006 -2.33368e-006 1.53833e-006 -1.48725e-007 -3.33383e-007 2.19761e-007 -5.94899e-007 -1.33353e-006 8.79044e-007 -9.91857 -23.7716 -18.9285 -172.882 72.0014 169.802 29.1891 53.1872 -36.5968 1.04066e-007 1.71739e-007 6.07863e-007 9.60989 -23.6999 18.8032 173.251 72.1093 -170.134 -28.3874 52.1943 35.9892 1.46181e-007 -2.29165e-007 8.09155e-007 
1.93631 31.7 -1.73304 0 14.1113 -0 -0.107894 1.33864 -0.488269 -0.204453 2.67814 -0.974415 -0.204453 2.67814 -0.974415 -0.0294146 -19.048 -0.0129961 -9.36132e-008 -0.649237 -3.86424e-007 -6.08688 16.4777 1.08666 -43.2061 -1.56381 -6.67879 -45.1622 26.619 -34.2864 51.6192 11.0908 -10.7824 -4.77083e-015 -3.18055e-015 -0 -4.77083e-015 -6.36111e-015 6.36111e-015 3.18055e-015 3.18055e-015 6.36111e-015 -4.77083e-015 -3.18055e-015 -0 -0.0146395 -8.96054e-005 1.11036e-006 6.36111e-015 -3.18055e-015 -0 -4.77083e-015 -3.18055e-015 -0 -0.0187765 -0.00117915 5.9238e-005 -3.18055e-015 -3.18055e-015 6.36111e-015 -4.77083e-015 -3.18055e-015 -0 -0.0122821 -0.00325246 0.000680207 -3.18055e-015 -1.27222e-014 9.54166e-015 -4.77083e-015 -3.18055e-015 -0 -4.77083e-015 -6.36111e-015 6.36111e-015 3.18055e-015 3.18055e-015 6.36111e-015 22.9633 -5.26237 23.0561 42.2182 -2.97246 14.0193 33.5748 21.7368 27.4182 -35.5851 15.4906 -21.6149 -8.88803e-007 -2.03599e-006 1.25561e-006 -1.59028e-015 3.18055e-015 -0 -2.96268e-007 -6.78665e-007 4.18535e-007 -8.88803e-007 -2.03599e-006 1.25561e-006 0.0150182 -9.24177e-005 3.33508e-006 -2.96258e-007 -6.7861e-007 4.18624e-007 -8.88803e-007 -2.03599e-006 1.25561e-006 0.0190012 -0.00119398 -5.87467e-005 -2.96251e-007 -6.78596e-007 4.18651e-007 -8.88803e-007 -2.03599e-006 1.25561e-006 0.0122673 -0.00325396 -0.000685401 -2.96244e-007 -6.78624e-007 4.18616e-007 -8.88803e-007 -2.03599e-006 1.25561e-006 -1.59028e-015 3.18055e-015 -0 -2.96268e-007 -6.78665e-007 4.18535e-007 -8.68476 -21.0097 -16.9036 -168.999 79.4823 166.408 23.1069 50.358 -30.8051 -2.73435e-008 -2.71762e-008 -9.95016e-008 7.94577 -20.9302 16.8897 169.508 79.6268 -166.885 -22.8318 49.1338 31.0229 1.12758e-007 -1.08832e-007 3.97033e-007 
2.14021 31.7375 -1.35863 0 13.5196 -0 -0.117247 1.76323 -0.478482 -0.219906 3.52739 -0.954029 -0.219906 3.5274 -0.954028 -0.0490255 -19.0771 -0.0216709 -4.8698e-007 -0.864178 -5.27925e-007 -5.76794 15.6602 0.817018 -43.0357 -1.60675 -6.69608 -45.1622 26.619 -34.2864 51.782 10.4558 -11.1825 5.80455e-007 -1.37935e-006 -8.11353e-007 3.18055e-015 -9.54166e-015 6.36111e-015 -1.11319e-014 3.18055e-015 9.54166e-015 5.80455e-007 -1.37935e-006 -8.11353e-007 -0.0146069 -8.76384e-005 -8.52325e-008 -1.59028e-015 -3.18055e-015 -3.18055e-015 5.80455e-007 -1.37935e-006 -8.11353e-007 -0.0187348 -0.00117542 6.11541e-005 -9.53186e-007 1.07936e-006 -1.75552e-006 5.80455e-007 -1.37935e-006 -8.11353e-007 -0.0122947 -0.00325591 0.000677247 -3.18055e-015 -3.18055e-015 -3.18055e-015 5.80455e-007 -1.37935e-006 -8.11353e-007 3.18055e-015 -9.54166e-015 6.36111e-015 -1.11319e-014 3.18055e-015 9.54166e-015 22.7556 -5.71992 21.1487 43.506 -2.95893 16.6375 34.213 23.1557 26.8798 -35.2937 15.8419 -22.0428 2.99694e-007 6.72256e-007 -4.25707e-007 5.99388e-007 1.34451e-006 -8.51415e-007 5.99388e-007 1.34451e-006 -8.51415e-007 2.99694e-007 6.72256e-007 -4.25707e-007 0.0150127 -8.8091e-005 -1.93273e-006 5.99368e-007 1.3444e-006 -8.51591e-007 2.99694e-007 6.72256e-007 -4.25707e-007 0.0189839 -0.00119136 -6.63121e-005 5.99353e-007 1.34437e-006 -8.51644e-007 2.99694e-007 6.72256e-007 -4.25707e-007 0.012266 -0.00324515 -0.000677552 5.9934e-007 1.34443e-006 -8.51575e-007 2.99694e-007 6.72256e-007 -4.25707e-007 5.99388e-007 1.34451e-006 -8.51415e-007 5.99388e-007 1.34451e-006 -8.51415e-007 -8.76827 -19.9754 -16.6379 -168.693 79.9548 166.122 23.0057 50.5111 -30.5042 -2.7349e-008 -2.71798e-008 -9.9499e-008 7.62764 -19.8805 16.7212 169.212 80.1301 -166.619 -22.9848 49.0488 31.2535 3.03521e-006 1.85859e-007 -1.3984e-006 
2.3441 31.7758 -0.984351 0 12.9275 -0 -0.126722 2.19117 -0.468435 -0.235757 4.38331 -0.933038 -0.235756 4.38331 -0.933038 -0.0686819 -19.1058 -0.0303971 -2.48657e-008 -1.07921 3.54609e-007 -5.45382 14.8404 0.552781 -42.8653 -1.64975 -6.71325 -45.1622 26.619 -34.2864 51.9401 9.81906 -11.5803 6.36111e-015 3.18055e-015 -3.18055e-015 2.89795e-007 -6.89935e-007 -4.05545e-007 -1.59028e-015 3.18055e-015 -0 6.36111e-015 3.18055e-015 -3.18055e-015 -0.0146063 -8.9727e-005 7.48388e-007 2.31838e-006 -1.77135e-006 2.92471e-006 6.36111e-015 3.18055e-015 -3.18055e-015 -0.018741 -0.00117526 6.09254e-005 2.318e-006 -1.77156e-006 2.92463e-006 6.36111e-015 3.18055e-015 -3.18055e-015 -0.0122785 -0.00324886 0.000674401 1.59028e-015 -6.36111e-015 -0 6.36111e-015 3.18055e-015 -3.18055e-015 2.89795e-007 -6.89935e-007 -4.05545e-007 -1.59028e-015 3.18055e-015 -0 22.531 -6.17329 19.2254 44.7953 -2.88606 19.2605 34.8742 24.5718 26.3171 -34.9989 16.1914 -22.4735 -3.03261e-007 -6.66132e-007 4.32113e-007 -3.03261e-007 -6.66132e-007 4.32113e-007 -6.06523e-007 -1.33226e-006 8.64226e-007 -3.03261e-007 -6.66132e-007 4.32113e-007 0.0149778 -9.42055e-005 -4.09805e-006 -2.13505e-006 -2.38412e-006 -2.2517e-006 -3.03261e-007 -6.66132e-007 4.32113e-007 0.0189948 -0.00119338 -5.89962e-005 -6.06486e-007 -1.33212e-006 8.64453e-007 -3.03261e-007 -6.66132e-007 4.32113e-007 0.012256 -0.00324897 -0.000676081 -6.06473e-007 -1.33218e-006 8.64385e-007 -3.03261e-007 -6.66132e-007 4.32113e-007 -3.03261e-007 -6.66132e-007 4.32113e-007 -6.06523e-007 -1.33226e-006 8.64226e-007 -8.85566 -18.9396 -16.3717 -168.357 80.427 165.808 22.9029 50.6637 -30.202 -3.12919e-006 1.07573e-007 1.0743e-006 7.31337 -18.8292 16.5598 168.886 80.6323 -166.322 -23.1371 48.9634 31.4836 3.28887e-006 -5.87845e-008 -5.05129e-007 
2.54799 31.8149 -0.610211 0 12.3351 -0 -0.136332 2.62237 -0.458139 -0.252042 5.24562 -0.91146 -0.252042 5.24562 -0.911459 -0.0883257 -19.1348 -0.0390912 3.55178e-007 -1.29431 -6.43745e-007 -5.14437 14.018 0.293849 -42.6948 -1.69278 -6.73028 -45.1622 26.619 -34.2864 52.0937 9.18075 -11.976 -3.663e-007 -3.06447e-007 -2.54992e-006 -3.04995e-006 -4.67256e-007 1.37703e-007 3.1092e-007 -3.00224e-006 1.94962e-006 -3.663e-007 -3.06447e-007 -2.54992e-006 -0.0146269 -9.02458e-005 2.30194e-006 3.10757e-007 -3.00249e-006 1.94924e-006 -3.663e-007 -3.06447e-007 -2.54992e-006 -0.0187539 -0.00117837 6.2607e-005 3.10727e-007 -3.00257e-006 1.94913e-006 -3.663e-007 -3.06447e-007 -2.54992e-006 -0.0123115 -0.00326055 0.000679129 1.25753e-006 -4.07609e-006 3.68801e-006 -3.663e-007 -3.06447e-007 -2.54992e-006 -3.04995e-006 -4.67256e-007 1.37703e-007 3.1092e-007 -3.00224e-006 1.94962e-006 22.2895 -6.62165 17.2867 46.0811 -2.75446 21.8849 35.56 25.9845 25.7284 -34.7007 16.5388 -22.9072 4.77083e-015 3.18055e-015 -3.18055e-015 -2.88793e-006 6.48745e-007 -3.33121e-006 -1.41583e-006 -1.03454e-006 -3.06108e-006 4.77083e-015 3.18055e-015 -3.18055e-015 0.0150156 -8.78527e-005 3.07604e-006 -7.95139e-015 0 -3.18055e-015 4.77083e-015 3.18055e-015 -3.18055e-015 0.0189442 -0.00119083 -6.92725e-005 -1.76556e-031 -3.18055e-015 -3.18055e-015 4.77083e-015 3.18055e-015 -3.18055e-015 0.0122736 -0.00324938 -0.00067737 -4.77083e-015 -3.18055e-015 3.18055e-015 4.77083e-015 3.18055e-015 -3.18055e-015 -2.88793e-006 6.48745e-007 -3.33121e-006 -1.41583e-006 -1.03454e-006 -3.06108e-006 -8.9471 -17.9015 -16.1051 -167.986 80.8996 165.457 22.7985 50.8159 -29.8985 5.47127e-008 5.43733e-008 1.9899e-007 7.00308 -17.7736 16.4054 168.521 81.1359 -165.987 -23.2888 48.8775 31.7132 8.45743e-008 -8.16888e-008 2.97754e-007 
